<?xml version="1.0" ?><!DOCTYPE svg  PUBLIC '-//W3C//DTD SVG 1.1//EN'  'http://www.w3.org/Graphics/SVG/1.1/DTD/svg11.dtd'><svg enable-background="new 0 0 64 64" height="64px" id="Layer_1" version="1.1" viewBox="0 0 64 64" width="64px" xml:space="preserve" xmlns="http://www.w3.org/2000/svg" xmlns:xlink="http://www.w3.org/1999/xlink"><path d="M43.074,47.867c-0.002,0-0.002-0.003-0.005-0.006c-0.898-1.115-2.505-2.87-2.882-3.277  c-0.05-0.053-0.072-0.078-0.075-0.081c-0.725-1.291-1.364-2.896-1.525-4.7c0.003-1.478,0.909-2.95,0.909-2.95l-0.022-0.006  c0.44-0.82,0.706-1.716,0.706-2.664c0-3.135-2.625-5.751-6.173-6.481V10.853c0-1.535,0.329-1.992,0.521-2.134  c0.03-0.014,0.059-0.036,0.089-0.053c0.028-0.01,0.048-0.014,0.048-0.014l-0.003-0.017c0.43-0.246,0.729-0.688,0.729-1.217V1.528  c0-0.788-0.639-1.428-1.429-1.428h-3.927c-0.789,0-1.428,0.64-1.428,1.428v5.891c0,0.537,0.31,0.986,0.748,1.229l-0.006,0.014  c0,0,0.028,0.007,0.064,0.025c0.017,0.008,0.031,0.021,0.048,0.029c0.181,0.135,0.53,0.606,0.53,2.271v16.714  c-3.546,0.73-6.173,3.347-6.173,6.481c0,0.954,0.267,1.853,0.706,2.67l-0.017,0.014c0,0,1.013,2.098,0.675,4.164  c-0.304,1.409-0.871,2.636-1.473,3.668c-0.288,0.323-2.067,2.32-2.778,3.166c-0.003,0.003-0.003,0.006-0.005,0.011  c-1.555,1.654-2.477,3.674-2.477,5.853c0,5.606,6.066,10.172,13.55,10.172s13.553-4.565,13.553-10.172  C45.552,51.543,44.634,49.523,43.074,47.867z M31.999,59.735c-4.724,0-8.552-2.882-8.552-6.421c0-1.375,0.582-2.649,1.563-3.693  c0.001-0.003,0.001-0.005,0.004-0.008c0.335-0.399,1.049-1.205,1.461-1.671c0.148-0.195,0.312-0.44,0.483-0.73  c0.141-0.279,0.287-0.553,0.407-0.865H27.4c0.81-1.838,1.413-4.893,0.204-9.405c-0.183-0.385-0.297-0.798-0.358-1.228  c-0.015-0.047-0.024-0.086-0.039-0.134c0.008,0,0.015,0,0.025-0.003c-0.02-0.159-0.053-0.312-0.053-0.477  c0-2.496,2.159-4.521,4.82-4.521c2.664,0,4.82,2.025,4.82,4.521c0,0.268-0.036,0.527-0.084,0.783c0.003,0,0.009,0.006,0.009,0.006  s-0.009,0.022-0.012,0.028c-0.072,0.373-0.197,0.73-0.362,1.065c-0.661,2.209-1.709,7.333,1.313,11.126l0,0  c0.407,0.452,0.94,1.052,1.303,1.504c0.003,0,0.003,0.003,0.003,0.003c0.984,1.046,1.564,2.32,1.564,3.698  C40.553,56.854,36.724,59.735,31.999,59.735z" fill="#241F20"/></svg>