<?xml version="1.0" ?><!DOCTYPE svg  PUBLIC '-//W3C//DTD SVG 1.1//EN'  'http://www.w3.org/Graphics/SVG/1.1/DTD/svg11.dtd'><svg enable-background="new 0 0 48 48" height="48px" version="1.1" viewBox="0 0 48 48" width="48px" xml:space="preserve" xmlns="http://www.w3.org/2000/svg" xmlns:xlink="http://www.w3.org/1999/xlink"><g id="Layer_4"><g><path d="M31.624,22.806c-1.97-0.16-3.138,0.023-2.912-0.892c0.195-0.786,0.777-1.561,1.83-2.25    c0.033-0.012,0.064-0.02,0.094-0.031c0.171-0.087,0.33-0.188,0.473-0.306v-0.002c0.101-0.051,0.166-0.12,0.215-0.202    c0.822-0.81,1.08-2.083,0.532-3.175c-0.68-1.353-2.325-1.901-3.678-1.22c-0.613,0.308-1.049,0.817-1.29,1.405    c-0.008-0.002-0.008-0.004-0.014-0.004c-0.008,0.031-0.018,0.055-0.027,0.088c-0.035,0.091-0.057,0.183-0.087,0.277    c-0.544,1.791-1.425,2.688-2.147,3.332c-0.772,0.689-1.548,0.775-2.942-1.578c-0.973-1.643-1.836-3.14-2.268-3.895    c-0.015-0.035-0.022-0.072-0.041-0.109c-0.059-0.118-0.136-0.222-0.207-0.326c-0.029-0.053-0.046-0.082-0.046-0.082l-0.003,0.004    c-0.778-1.047-2.216-1.421-3.424-0.817c-1.153,0.58-1.715,1.864-1.438,3.067H14.24c0,0,0.162,2.102,2.916,4.163    s2.526,3.322,2.206,4.4c-0.319,1.074-1.281,2.134-2.243,2.559c-1.149,0.575-1.616,1.981-1.038,3.13    c0.577,1.152,1.979,1.615,3.13,1.039c0.156-0.083,0.3-0.18,0.429-0.281l0.002-0.004c0,0,0.042-0.042,0.118-0.112    c0.005-0.004,0.006-0.008,0.01-0.012c0.562-0.541,2.828-2.615,3.951-1.919c1.288,0.794,1.247,2.818,1.493,3.912    c0.002,0.012,0.009,0.02,0.01,0.027c-0.004,0.361,0.065,0.729,0.237,1.074c0.577,1.152,1.98,1.615,3.133,1.04    c1.15-0.577,1.612-1.982,1.037-3.135c-0.157-0.311-0.377-0.563-0.634-0.771c-0.555-0.731-1.316-1.876-1.583-2.962    c0.113-1.031,1.279-1.899,2.015-1.468c0.736,0.437,2.248,1.627,2.863,0.339C32.913,25.831,33.599,22.963,31.624,22.806z" fill="#241F20"/><path d="M47.875,19.766l-2.207,0.751c-1.439-9.473-8.903-16.941-18.37-18.389L28.028,0H19.89l0.728,2.128    C11.158,3.575,3.701,11.03,2.253,20.487l-2.128-0.722v8.054l2.116-0.716c1.423,9.521,8.933,17.03,18.455,18.447L19.89,48h8.139    l-0.809-2.449c9.525-1.421,17.04-8.934,18.458-18.463l2.197,0.731V19.766z M25.857,41.425l-1.899-5.758l-1.899,5.758    c-8.267-0.884-14.826-7.45-15.696-15.72l5.637-1.911l-5.625-1.909c0.901-8.22,7.427-14.743,15.651-15.637l1.924,5.627l1.934-5.629    c8.236,0.892,14.776,7.431,15.664,15.672l-5.631,1.915l5.637,1.88C40.679,33.979,34.119,40.545,25.857,41.425z" fill="#241F20"/></g></g></svg>